<mxfile host="app.diagrams.net" agent="Mozilla/5.0 (Windows NT 10.0; Win64; x64) AppleWebKit/537.36 (KHTML, like Gecko) Chrome/137.0.0.0 Safari/537.36" version="27.2.0">
  <diagram name="Page-1" id="qR93W7Ke6WKhlsEb2gWP">
    <mxGraphModel dx="925" dy="546" grid="1" gridSize="10" guides="1" tooltips="1" connect="1" arrows="1" fold="1" page="1" pageScale="1" pageWidth="850" pageHeight="1100" math="0" shadow="0">
      <root>
        <mxCell id="0" />
        <mxCell id="1" parent="0" />
        <mxCell id="3h9noz4PVYsbVK-f-fdG-2" value="patient audio" style="rounded=0;whiteSpace=wrap;html=1;" vertex="1" parent="1">
          <mxGeometry x="50" y="170" width="120" height="60" as="geometry" />
        </mxCell>
        <mxCell id="3h9noz4PVYsbVK-f-fdG-3" value="" style="shape=flexArrow;endArrow=classic;html=1;rounded=0;exitX=1;exitY=0.5;exitDx=0;exitDy=0;" edge="1" parent="1" source="3h9noz4PVYsbVK-f-fdG-2" target="3h9noz4PVYsbVK-f-fdG-4">
          <mxGeometry width="50" height="50" relative="1" as="geometry">
            <mxPoint x="380" y="270" as="sourcePoint" />
            <mxPoint x="260" y="200" as="targetPoint" />
          </mxGeometry>
        </mxCell>
        <mxCell id="3h9noz4PVYsbVK-f-fdG-6" style="edgeStyle=orthogonalEdgeStyle;rounded=0;orthogonalLoop=1;jettySize=auto;html=1;exitX=1;exitY=0.5;exitDx=0;exitDy=0;" edge="1" parent="1" source="3h9noz4PVYsbVK-f-fdG-4" target="3h9noz4PVYsbVK-f-fdG-7">
          <mxGeometry relative="1" as="geometry">
            <mxPoint x="360" y="200" as="targetPoint" />
          </mxGeometry>
        </mxCell>
        <mxCell id="3h9noz4PVYsbVK-f-fdG-4" value="ASR&lt;br&gt;(transcription)" style="ellipse;whiteSpace=wrap;html=1;" vertex="1" parent="1">
          <mxGeometry x="200" y="160" width="120" height="80" as="geometry" />
        </mxCell>
        <mxCell id="3h9noz4PVYsbVK-f-fdG-8" style="edgeStyle=orthogonalEdgeStyle;rounded=0;orthogonalLoop=1;jettySize=auto;html=1;" edge="1" parent="1" source="3h9noz4PVYsbVK-f-fdG-7" target="3h9noz4PVYsbVK-f-fdG-9">
          <mxGeometry relative="1" as="geometry">
            <mxPoint x="540" y="200" as="targetPoint" />
          </mxGeometry>
        </mxCell>
        <mxCell id="3h9noz4PVYsbVK-f-fdG-7" value="Summarizing the transcribed text" style="ellipse;whiteSpace=wrap;html=1;" vertex="1" parent="1">
          <mxGeometry x="380" y="160" width="120" height="80" as="geometry" />
        </mxCell>
        <mxCell id="3h9noz4PVYsbVK-f-fdG-9" value="Summarized info as text" style="rounded=0;whiteSpace=wrap;html=1;" vertex="1" parent="1">
          <mxGeometry x="570" y="170" width="120" height="60" as="geometry" />
        </mxCell>
        <mxCell id="3h9noz4PVYsbVK-f-fdG-14" style="edgeStyle=orthogonalEdgeStyle;rounded=0;orthogonalLoop=1;jettySize=auto;html=1;exitX=1;exitY=0.5;exitDx=0;exitDy=0;" edge="1" parent="1" source="3h9noz4PVYsbVK-f-fdG-10">
          <mxGeometry relative="1" as="geometry">
            <mxPoint x="570" y="580.8823529411765" as="targetPoint" />
          </mxGeometry>
        </mxCell>
        <mxCell id="3h9noz4PVYsbVK-f-fdG-10" value="RAG" style="rhombus;whiteSpace=wrap;html=1;" vertex="1" parent="1">
          <mxGeometry x="350" y="541" width="115" height="80" as="geometry" />
        </mxCell>
        <mxCell id="3h9noz4PVYsbVK-f-fdG-13" style="edgeStyle=orthogonalEdgeStyle;rounded=0;orthogonalLoop=1;jettySize=auto;html=1;entryX=0;entryY=0.5;entryDx=0;entryDy=0;" edge="1" parent="1" source="3h9noz4PVYsbVK-f-fdG-12" target="3h9noz4PVYsbVK-f-fdG-10">
          <mxGeometry relative="1" as="geometry" />
        </mxCell>
        <mxCell id="3h9noz4PVYsbVK-f-fdG-12" value="input audio" style="rounded=0;whiteSpace=wrap;html=1;" vertex="1" parent="1">
          <mxGeometry x="120" y="551" width="80" height="60" as="geometry" />
        </mxCell>
        <mxCell id="3h9noz4PVYsbVK-f-fdG-16" value="output as summarized text" style="rounded=0;whiteSpace=wrap;html=1;" vertex="1" parent="1">
          <mxGeometry x="570" y="551" width="120" height="60" as="geometry" />
        </mxCell>
        <mxCell id="3h9noz4PVYsbVK-f-fdG-19" value="basic pipeline:&lt;br&gt;whisper to recognize and GPT turbo, mistral ai, or any pretrained light model for summarizing" style="text;html=1;align=center;verticalAlign=middle;whiteSpace=wrap;rounded=0;" vertex="1" parent="1">
          <mxGeometry x="152.5" y="320" width="510" height="140" as="geometry" />
        </mxCell>
      </root>
    </mxGraphModel>
  </diagram>
</mxfile>
